<svg width="41" height="51" viewBox="0 0 41 51" fill="none" xmlns="http://www.w3.org/2000/svg">
<path d="M18.0416 37.7916H22.9583V23.0416H18.0416V37.7916ZM20.4999 18.125C21.1964 18.125 21.7807 17.889 22.2527 17.417C22.7247 16.945 22.9599 16.3615 22.9583 15.6666C22.9566 14.9717 22.7206 14.3883 22.2503 13.9163C21.7799 13.4443 21.1964 13.2083 20.4999 13.2083C19.8034 13.2083 19.2199 13.4443 18.7496 13.9163C18.2792 14.3883 18.0432 14.9717 18.0416 15.6666C18.0399 16.3615 18.2759 16.9458 18.7496 17.4194C19.2232 17.8931 19.8067 18.1282 20.4999 18.125ZM20.4999 50.0833C14.8048 48.6493 10.1028 45.3813 6.394 40.2795C2.6852 35.1776 0.831614 29.5136 0.833253 23.2875V8.29163L20.4999 0.916626L40.1666 8.29163V23.2875C40.1666 29.5152 38.313 35.1801 34.6058 40.2819C30.8987 45.3838 26.1967 48.6509 20.4999 50.0833Z" fill="white"/>
</svg>
