<svg width="50" height="50" viewBox="0 0 50 50" fill="none" xmlns="http://www.w3.org/2000/svg">
<path d="M43.7501 4.16663H31.2501C30.0001 4.16663 29.1667 4.99996 29.1667 6.24996C29.1667 7.49996 30.0001 8.33329 31.2501 8.33329H41.6668V18.75C41.6668 20 42.5001 20.8333 43.7501 20.8333C45.0001 20.8333 45.8334 20 45.8334 18.75V6.24996C45.8334 4.99996 45.0001 4.16663 43.7501 4.16663ZM6.25008 20.8333C7.50008 20.8333 8.33342 20 8.33342 18.75V8.33329H18.7501C20.0001 8.33329 20.8334 7.49996 20.8334 6.24996C20.8334 4.99996 20.0001 4.16663 18.7501 4.16663H6.25008C5.00008 4.16663 4.16675 4.99996 4.16675 6.24996V18.75C4.16675 20 5.00008 20.8333 6.25008 20.8333ZM18.7501 41.6666H8.33342V31.25C8.33342 30 7.50008 29.1666 6.25008 29.1666C5.00008 29.1666 4.16675 30 4.16675 31.25V43.75C4.16675 45 5.00008 45.8333 6.25008 45.8333H18.7501C20.0001 45.8333 20.8334 45 20.8334 43.75C20.8334 42.5 20.0001 41.6666 18.7501 41.6666ZM43.7501 29.1666C42.5001 29.1666 41.6668 30 41.6668 31.25V41.6666H31.2501C30.0001 41.6666 29.1667 42.5 29.1667 43.75C29.1667 45 30.0001 45.8333 31.2501 45.8333H43.7501C45.0001 45.8333 45.8334 45 45.8334 43.75V31.25C45.8334 30 45.0001 29.1666 43.7501 29.1666ZM25.0001 12.5C21.4584 12.5 18.7501 15.2083 18.7501 18.75V20.8333C16.4584 20.8333 14.5834 22.7083 14.5834 25V33.3333C14.5834 35.625 16.4584 37.5 18.7501 37.5H31.2501C33.5417 37.5 35.4167 35.625 35.4167 33.3333V25C35.4167 22.7083 33.5417 20.8333 31.2501 20.8333V18.75C31.2501 15.2083 28.5417 12.5 25.0001 12.5ZM27.0834 20.8333H22.9167V18.75C22.9167 17.5 23.7501 16.6666 25.0001 16.6666C26.2501 16.6666 27.0834 17.5 27.0834 18.75V20.8333Z" fill="white"/>
</svg>
